<svg xmlns="http://www.w3.org/2000/svg" viewBox="0 0 779.11 779.11"><path d="M662.914 632.351h-408.44c-11.49 0-20.806 9.315-20.806 20.806v12.805c0 11.49 9.315 20.81 20.806 20.81h477.262v-54.418l-68.822-.003z"/><circle cx="211.187" cy="189.625" r="115.19"/><path d="M492.234 472.147l-263.969-.146-6.25-.02v-30.632l-.217-25.64c0-61.245-49.651-110.898-110.899-110.898-2.075 0-4.136.07-6.184.182l-.156-.182C46.813 304.813 0 351.625 0 409.372v295.303h222.015V578.876l-2.937-.231c-.209-.019-.261.002-.391.002-15.021 0-29.417-6.324-39.562-17.399l-90.112-98.363a7.693 7.693 0 0 1 .476-10.874 7.694 7.694 0 0 1 10.874.476l90.111 98.362c7.322 7.993 17.648 12.881 28.521 13.039l10.594.152h262.645c25.375 0 45.947-20.571 45.947-45.947.001-25.376-20.572-45.946-45.947-45.946z"/><path d="M765.197 309.111c-10.744-3.681-22.439 2.049-26.123 12.794l-87.209 254.59H339.803c-11.356 0-20.567 9.206-20.567 20.564s9.211 20.566 20.567 20.566H666.31c6.994 0 13.168-3.503 16.879-8.841a20.493 20.493 0 0 0 3.059-5.729L778 335.225c3.67-10.739-2.053-22.435-12.803-26.114z"/></svg>