<svg xmlns="http://www.w3.org/2000/svg"><symbol id="icon-adaptive" viewBox="0 0 27.442 27.442"><path d="M19.494 0H7.948a1.997 1.997 0 0 0-1.997 1.999v23.446c0 1.102.892 1.997 1.997 1.997h11.546a1.998 1.998 0 0 0 1.997-1.997V1.999A1.999 1.999 0 0 0 19.494 0zm-8.622 1.214h5.7c.144 0 .261.215.261.481s-.117.482-.261.482h-5.7c-.145 0-.26-.216-.26-.482s.115-.481.26-.481zm2.85 24.255a1.275 1.275 0 1 1 0-2.55 1.275 1.275 0 0 1 0 2.55zm6.273-4.369H7.448V3.373h12.547V21.1z"/></symbol><symbol id="icon-css" viewBox="0 0 470.699 470.699"><path d="M426.981 0H43.701C34.52 0 27.632 7.769 28.442 16.949L63.45 409.254c.811 9.173 8.745 18.774 17.644 21.253L219.1 468.842c8.887 2.463 23.413 2.479 32.313.032l138.177-38.281c8.901-2.472 16.835-11.986 17.645-21.175l35.023-392.469C443.068 7.769 436.209 0 426.981 0zM360.51 141.611a.134.134 0 0 1-.112.117.134.134 0 0 1-.144-.077L252.13 185.96a3.485 3.485 0 0 0 1.321 6.708h84.103a15.772 15.772 0 0 1 15.682 17.443l-13.141 123.273a15.77 15.77 0 0 1-10.447 13.205l-89.269 31.41a15.761 15.761 0 0 1-10.397.025l-88.852-30.778a15.771 15.771 0 0 1-10.52-13.228l-5.957-55.828a10.388 10.388 0 0 1 10.331-11.492h24.725c5.313 0 9.769 4.007 10.331 9.289l3.655 34.316 61.521 21.385 61.803-21.58 7.559-71.17H129.835a10.39 10.39 0 0 1-10.327-9.25l-3.327-30.164a10.388 10.388 0 0 1 6.366-10.745l111.837-46.109a2.872 2.872 0 0 0-1.093-5.528H115.542a6.926 6.926 0 0 1-6.888-6.201l-3.406-32.421a6.927 6.927 0 0 1 6.887-7.648h246.379a6.928 6.928 0 0 1 6.881 7.707l-4.885 43.032z"/></symbol><symbol id="icon-github" viewBox="0 0 512 512"><path d="M255.968 5.329C114.624 5.329 0 120.401 0 262.353c0 113.536 73.344 209.856 175.104 243.872 12.8 2.368 17.472-5.568 17.472-12.384 0-6.112-.224-22.272-.352-43.712-71.2 15.52-86.24-34.464-86.24-34.464-11.616-29.696-28.416-37.6-28.416-37.6-23.264-15.936 1.728-15.616 1.728-15.616 25.696 1.824 39.2 26.496 39.2 26.496 22.848 39.264 59.936 27.936 74.528 21.344 2.304-16.608 8.928-27.936 16.256-34.368-56.832-6.496-116.608-28.544-116.608-127.008 0-28.064 9.984-51.008 26.368-68.992-2.656-6.496-11.424-32.64 2.496-68 0 0 21.504-6.912 70.4 26.336 20.416-5.696 42.304-8.544 64.096-8.64 21.728.128 43.648 2.944 64.096 8.672 48.864-33.248 70.336-26.336 70.336-26.336 13.952 35.392 5.184 61.504 2.56 68 16.416 17.984 26.304 40.928 26.304 68.992 0 98.72-59.84 120.448-116.864 126.816 9.184 7.936 17.376 23.616 17.376 47.584 0 34.368-.32 62.08-.32 70.496 0 6.88 4.608 14.88 17.6 12.352C438.72 472.145 512 375.857 512 262.353 512 120.401 397.376 5.329 255.968 5.329z"/></symbol><symbol id="icon-logo" viewBox="0 0 779.11 779.11"><path d="M662.914 632.351h-408.44c-11.49 0-20.806 9.315-20.806 20.806v12.805c0 11.49 9.315 20.81 20.806 20.81h477.262v-54.418l-68.822-.003z"/><circle cx="211.187" cy="189.625" r="115.19"/><path d="M492.234 472.147l-263.969-.146-6.25-.02v-30.632l-.217-25.64c0-61.245-49.651-110.898-110.899-110.898-2.075 0-4.136.07-6.184.182l-.156-.182C46.813 304.813 0 351.625 0 409.372v295.303h222.015V578.876l-2.937-.231c-.209-.019-.261.002-.391.002-15.021 0-29.417-6.324-39.562-17.399l-90.112-98.363a7.693 7.693 0 0 1 .476-10.874 7.694 7.694 0 0 1 10.874.476l90.111 98.362c7.322 7.993 17.648 12.881 28.521 13.039l10.594.152h262.645c25.375 0 45.947-20.571 45.947-45.947.001-25.376-20.572-45.946-45.947-45.946z"/><path d="M765.197 309.111c-10.744-3.681-22.439 2.049-26.123 12.794l-87.209 254.59H339.803c-11.356 0-20.567 9.206-20.567 20.564s9.211 20.566 20.567 20.566H666.31c6.994 0 13.168-3.503 16.879-8.841a20.493 20.493 0 0 0 3.059-5.729L778 335.225c3.67-10.739-2.053-22.435-12.803-26.114z"/></symbol><symbol id="icon-screen" viewBox="0 0 32 32"><path d="M29 4H3C1.346 4 0 5.346 0 7v13c0 1.654 1.346 3 3 3h26c1.654 0 3-1.346 3-3V7c0-1.654-1.346-3-3-3zm1 16c0 .551-.448 1-1 1H3c-.552 0-1-.449-1-1V7c0-.551.448-1 1-1h26c.552 0 1 .449 1 1v13zm.5 5H20a1 1 0 0 1-1 1h-6a1 1 0 0 1-1-1H1.5a1.5 1.5 0 0 0 0 3h29a1.5 1.5 0 0 0 0-3z"/></symbol><symbol id="icon-telegram" viewBox="0 0 26.649 26.649"><path d="M26.157 1.238A2.3 2.3 0 0 0 24.31.346c-.478 0-.973.133-1.472.395L1.593 11.88c-1.51.793-1.615 1.987-1.59 2.463.024.479.255 1.654 1.839 2.283L4.557 17.7a4.63 4.63 0 0 0 1.711.309c.098 0 .192-.013.289-.018-.037.048-.082.085-.116.135-.506.757-.531 1.783-.073 2.888a.887.887 0 0 0 .021.051c.803 1.779 1.696 3.787 1.804 4.066a1.828 1.828 0 0 0 1.688 1.172c1.146 0 1.486-.552 3.361-3.604.146-.224.471-.744.526-1.406l.601.242 3.008 1.226c.603.246 1.131.463 1.409.578a1.807 1.807 0 0 0 .937.264c1.368 0 1.696-1.185 1.872-1.82.087-.314.207-.749.336-1.229l4.588-16.858c.346-1.273-.079-2.086-.362-2.458zm-14.43 20.501S10.025 24.51 9.88 24.51c-.004 0-.006-.002-.008-.006-.167-.449-1.849-4.176-1.849-4.176-.31-.747-.254-1.387.279-1.387.117 0 .257.031.421.099l1.306.679c.218.149.456.278.718.381l.066.025.123.062c1.009.534 1.33.727.791 1.552zM24.789 3.224l-4.586 16.858c-.259.95-.475 1.727-.479 1.727-.004-.002-.009-.02-.009-.023 0-.006-.748-.312-1.662-.686l-3.01-1.226c-.914-.37-2.413-.969-3.332-1.323l-.152-.061-.562-.292c-.557-.427-.606-1.131-.046-1.728l9.312-9.971c.374-.399.515-.605.434-.605-.064 0-.271.133-.617.404L8.298 15.592c-.514.401-1.295.625-2.029.625-.376 0-.741-.06-1.052-.183l-2.713-1.073c-.917-.363-.952-1.033-.079-1.493L23.672 2.327c.245-.128.46-.188.638-.188.457 0 .665.4.479 1.085z"/></symbol><symbol id="icon-vk" viewBox="0 0 304.36 304.36"><path d="M261.945 175.576c10.096 9.857 20.752 19.131 29.807 29.982 4 4.822 7.787 9.798 10.684 15.394 4.105 7.955.387 16.709-6.746 17.184l-44.34-.02c-11.436.949-20.559-3.655-28.23-11.474-6.139-6.253-11.824-12.908-17.727-19.372-2.42-2.642-4.953-5.128-7.979-7.093-6.053-3.929-11.307-2.726-14.766 3.587-3.523 6.421-4.322 13.531-4.668 20.687-.475 10.441-3.631 13.186-14.119 13.664-22.414 1.057-43.686-2.334-63.447-13.641-17.422-9.968-30.932-24.04-42.691-39.971-22.895-31.021-40.428-65.108-56.186-100.15C-2.01 76.458.584 72.22 9.295 72.07c14.465-.281 28.928-.261 43.41-.02 5.879.086 9.771 3.458 12.041 9.012 7.826 19.243 17.402 37.551 29.422 54.521 3.201 4.518 6.465 9.036 11.113 12.216 5.142 3.521 9.057 2.354 11.476-3.374 1.535-3.632 2.207-7.544 2.553-11.434 1.146-13.383 1.297-26.743-.713-40.079-1.234-8.323-5.922-13.711-14.227-15.286-4.238-.803-3.607-2.38-1.555-4.799 3.564-4.172 6.916-6.769 13.598-6.769h50.111c7.889 1.557 9.641 5.101 10.721 13.039l.043 55.663c-.086 3.073 1.535 12.192 7.07 14.226 4.43 1.448 7.35-2.096 10.008-4.905 11.998-12.734 20.561-27.783 28.211-43.366 3.395-6.852 6.314-13.968 9.143-21.078 2.096-5.276 5.385-7.872 11.328-7.757l48.229.043c1.43 0 2.877.021 4.262.258 8.127 1.385 10.354 4.881 7.844 12.817-3.955 12.451-11.65 22.827-19.174 33.251-8.043 11.129-16.645 21.877-24.621 33.072-7.328 10.223-6.746 15.376 2.357 24.255zm0 0" fill-rule="evenodd" clip-rule="evenodd"/></symbol></svg>